<?xml version="1.0" encoding="UTF-8" standalone="no"?>
<svg
   version="1.0"
   width="933.000000pt"
   height="960.000000pt"
   viewBox="0 0 933.000000 960.000000"
   preserveAspectRatio="xMidYMid meet"
   id="svg33"
   sodipodi:docname="Chuck.svg"
   inkscape:version="1.3 (0e150ed6c4, 2023-07-21)"
   xmlns:inkscape="http://www.inkscape.org/namespaces/inkscape"
   xmlns:sodipodi="http://sodipodi.sourceforge.net/DTD/sodipodi-0.dtd"
   xmlns="http://www.w3.org/2000/svg"
   xmlns:svg="http://www.w3.org/2000/svg">
  <defs
     id="defs33" />
  <sodipodi:namedview
     id="namedview33"
     pagecolor="#505050"
     bordercolor="#eeeeee"
     borderopacity="1"
     inkscape:showpageshadow="0"
     inkscape:pageopacity="0"
     inkscape:pagecheckerboard="0"
     inkscape:deskcolor="#505050"
     inkscape:document-units="pt"
     inkscape:zoom="0.65241649"
     inkscape:cx="306.55264"
     inkscape:cy="715.03404"
     inkscape:window-width="2560"
     inkscape:window-height="1377"
     inkscape:window-x="-8"
     inkscape:window-y="-8"
     inkscape:window-maximized="1"
     inkscape:current-layer="svg33" />
  <g
     transform="translate(0.000000,960.000000) scale(0.100000,-0.100000)"
     fill="#000000"
     stroke="none"
     id="g33"
     style="fill:#ffffff;fill-opacity:0.23703703">
    <path
       d="M4435 9590 c-155 -7 -209 -15 -600 -89 -430 -82 -700 -144 -721 -165 -20 -20 -104 -245 -104 -279 0 -17 -7 -45 -15 -60 -8 -15 -18 -49 -24 -75 -25 -127 -45 -215 -66 -292 -12 -47 -43 -179 -69 -295 -26 -115 -65 -286 -87 -380 -22 -93 -81 -341 -130 -550 -49 -209 -123 -515 -163 -680 -91 -368 -91 -365 -76 -365 9 0 10 -4 2 -13 -6 -7 -13 -35 -16 -61 -3 -33 -13 -59 -33 -84 -45 -56 -57 -81 -40 -87 20 -8 165 -10 412 -6 234 4 476 29 875 92 299 47 270 45 270 21 0 -11 -8 -23 -17 -26 -69 -22 -1001 -149 -1216 -166 -272 -22 -415 -42 -471 -65 -21 -9 -81 -25 -134 -36 -90 -19 -125 -20 -477 -17 -250 3 -390 8 -410 16 -29 11 -156 32 -319 53 -79 11 -78 10 -212 100 -59 39 -170 155 -216 226 -28 43 -80 79 -98 68 -17 -11 -11 -38 31 -140 61 -151 112 -233 231 -377 122 -146 385 -345 613 -464 107 -55 179 -101 315 -196 56 -39 285 -160 496 -262 100 -48 169 -89 215 -129 24 -21 73 -55 109 -74 36 -20 79 -47 97 -60 17 -12 36 -23 42 -23 11 0 28 -49 36 -105 4 -24 15 -47 28 -57 12 -10 27 -22 34 -28 23 -19 96 -230 129 -375 19 -82 39 -204 45 -270 16 -179 17 -185 39 -185 18 0 19 6 15 58 -2 31 -7 91 -10 132 -9 130 -63 354 -123 515 -56 147 -57 152 -58 257 -1 77 -6 117 -18 142 -10 21 -14 45 -10 60 3 13 1 33 -5 45 -6 11 -13 67 -15 124 -2 57 -10 122 -17 146 -10 34 -10 49 1 79 15 42 25 52 59 52 13 0 41 15 62 34 44 41 93 53 143 36 41 -13 46 -32 15 -58 -72 -58 -89 -77 -105 -117 -12 -32 -15 -57 -10 -87 4 -24 9 -63 10 -88 1 -25 8 -55 14 -67 10 -17 9 -31 -2 -63 -13 -37 -12 -41 4 -50 13 -7 21 -5 32 8 26 30 29 41 17 60 -10 16 -8 30 12 76 13 32 31 62 40 67 9 5 103 10 208 13 148 3 204 1 244 -11 29 -8 57 -15 64 -17 7 -1 22 -14 33 -29 27 -34 44 -34 58 -2 6 13 28 33 49 42 21 10 39 26 41 37 4 20 -31 54 -83 82 -16 9 -49 36 -72 59 -39 39 -43 48 -43 92 0 27 6 55 13 62 10 10 6 18 -19 39 -20 17 -34 40 -38 63 -4 21 -16 49 -28 65 -12 15 -23 41 -24 57 -1 17 -8 41 -15 54 -11 21 -10 25 9 39 14 10 22 26 22 44 0 24 -6 30 -35 40 -19 6 -35 16 -35 22 0 10 -103 8 -335 -7 -291 -18 -285 -19 -285 4 0 24 16 27 175 36 61 3 216 13 345 20 129 8 243 15 253 15 12 0 17 -8 17 -25 0 -22 -4 -25 -40 -25 -43 0 -52 -13 -21 -30 26 -13 31 -13 31 4 0 8 8 13 17 12 10 -2 31 6 49 16 31 18 31 18 59 -4 28 -22 85 -129 85 -160 0 -27 29 -22 40 7 5 13 12 48 15 77 12 108 15 118 34 118 10 0 24 -7 31 -15 16 -19 34 -19 86 1 60 23 96 3 129 -72 30 -68 57 -72 65 -9 3 22 9 46 13 53 11 16 47 15 92 -4 35 -14 41 -14 76 2 36 16 40 16 64 0 14 -9 25 -24 25 -33 0 -14 3 -13 20 5 12 12 25 22 31 22 18 0 41 68 29 90 -21 38 -12 59 34 80 53 23 104 26 132 6 24 -18 13 -29 -46 -45 -25 -7 -56 -21 -70 -31 l-24 -18 39 -19 c22 -10 43 -22 47 -28 10 -13 -2 -27 -18 -21 -20 8 -84 -24 -84 -42 0 -29 53 -62 100 -62 33 0 51 -23 31 -43 -7 -7 -55 -13 -122 -14 -60 -1 -118 -7 -129 -13 -38 -20 -47 -140 -11 -140 6 0 9 -26 8 -60 -1 -32 2 -62 6 -66 4 -4 24 -2 44 4 31 10 42 9 67 -6 16 -9 34 -24 39 -34 15 -23 -8 -48 -42 -48 -30 0 -74 27 -66 40 3 4 -4 6 -15 3 -13 -4 -20 -14 -20 -30 0 -14 -6 -39 -14 -56 -28 -63 -41 -123 -36 -162 4 -33 9 -41 29 -43 15 -2 30 3 37 13 18 24 117 18 122 -9 5 -23 -18 -67 -30 -60 -5 3 -18 -2 -29 -12 -19 -17 -18 -18 22 -45 24 -16 64 -30 93 -34 66 -9 70 -12 52 -41 -19 -28 -21 -54 -3 -54 11 0 38 48 38 67 0 4 7 12 15 16 16 9 19 47 4 47 -5 0 -7 7 -4 15 3 8 -4 32 -17 54 l-22 40 27 35 c19 25 37 37 64 42 20 4 42 11 49 16 6 5 60 11 120 14 93 5 117 10 170 35 49 24 67 28 82 19 11 -5 34 -10 51 -10 50 0 180 -78 180 -109 0 -5 -30 -19 -66 -31 -49 -16 -64 -26 -60 -37 3 -8 6 -16 6 -18 0 -1 36 8 79 20 l79 23 56 -20 c55 -20 91 -19 84 4 -2 6 -27 20 -55 31 -29 10 -54 26 -58 35 -3 8 -25 41 -48 73 -65 88 -138 127 -380 199 -71 21 -130 40 -133 42 -20 20 106 79 208 98 26 5 55 13 65 18 14 8 42 3 106 -18 83 -27 88 -27 97 -10 8 15 -1 25 -65 65 -43 27 -82 59 -90 75 -20 38 -30 43 -56 29 -24 -12 -92 2 -104 22 -10 15 15 39 40 39 12 0 30 9 40 20 17 19 17 20 -15 50 -38 35 -31 54 19 52 36 -1 63 25 40 38 -7 5 -23 7 -35 4 -14 -4 -31 3 -50 21 -26 25 -34 27 -83 21 -37 -4 -58 -2 -69 6 -9 8 -45 13 -95 13 -53 0 -82 4 -84 12 -6 18 25 30 96 37 36 4 77 14 92 22 16 8 50 14 76 15 26 0 79 8 117 18 38 10 101 19 140 20 39 1 120 6 181 12 60 5 256 10 436 10 l326 1 102 -32 c60 -19 101 -37 101 -45 0 -7 7 -18 15 -25 13 -10 15 -9 15 9 0 13 6 21 16 21 13 0 200 -30 412 -65 17 -3 32 -11 32 -18 0 -13 45 -42 126 -81 59 -28 134 -95 134 -119 0 -29 -19 -28 -79 5 -33 18 -63 30 -67 26 -4 -4 -7 -20 -8 -35 -1 -24 -5 -28 -26 -25 -66 7 -216 110 -228 156 -4 16 -14 31 -22 34 -12 3 -12 1 -2 -6 13 -9 6 -42 -9 -42 -4 0 -50 18 -100 40 -51 22 -95 40 -99 40 -4 0 -7 -7 -7 -16 0 -9 31 -39 69 -67 37 -27 68 -53 68 -57 0 -4 -6 -12 -13 -18 -10 -9 -23 -5 -51 15 -21 14 -37 21 -34 17 14 -32 45 -74 54 -74 6 0 28 -15 49 -33 37 -32 38 -35 40 -104 2 -61 7 -80 34 -122 17 -28 35 -51 40 -51 5 0 16 -15 25 -34 8 -18 22 -39 31 -46 15 -13 21 -50 8 -50 -28 2 -62 40 -124 140 -75 119 -127 245 -106 253 7 2 9 8 4 12 -4 5 -11 4 -16 -1 -11 -11 -18 -121 -8 -131 4 -3 7 -33 7 -65 0 -37 6 -68 16 -83 15 -22 14 -25 -5 -42 -19 -16 -21 -24 -15 -95 6 -68 5 -78 -10 -84 -15 -6 -17 -16 -11 -79 5 -48 3 -80 -4 -94 -9 -17 -8 -35 9 -87 11 -36 20 -76 20 -89 0 -12 7 -28 15 -35 8 -7 15 -19 15 -28 0 -8 7 -24 17 -34 25 -28 33 -93 45 -344 l10 -231 -32 -62 c-30 -60 -33 -91 -10 -91 5 0 26 32 46 72 l36 72 -7 211 c-6 187 -6 212 9 224 9 7 16 18 16 23 0 5 9 21 19 36 11 15 22 49 26 77 6 41 14 56 46 86 56 52 119 60 189 24 44 -22 50 -29 50 -58 0 -38 8 -51 35 -55 11 -2 42 -16 68 -33 33 -20 61 -29 90 -29 39 0 47 -5 105 -67 63 -67 63 -67 90 -51 15 9 41 18 57 19 35 4 35 -1 1 -76 -13 -27 -40 -95 -61 -150 -46 -121 -52 -130 -72 -113 -26 21 -87 -62 -168 -230 -41 -84 -75 -157 -75 -161 0 -15 34 -23 39 -10 2 7 34 73 72 148 l68 136 0 -62 c1 -44 -8 -86 -30 -150 -17 -48 -33 -97 -36 -108 -3 -11 -14 -29 -23 -40 -10 -11 -30 -40 -46 -65 -37 -58 -78 -106 -177 -208 -66 -66 -92 -86 -133 -99 -45 -14 -57 -14 -95 -2 -40 13 -45 18 -57 62 -13 47 -13 50 13 89 19 28 24 43 16 51 -14 14 -35 -4 -59 -54 -19 -37 -19 -43 -5 -99 9 -33 19 -58 23 -55 4 3 10 -1 13 -9 3 -8 19 -17 36 -21 17 -4 31 -12 31 -18 0 -7 -16 -61 -35 -122 -19 -60 -35 -113 -35 -117 0 -5 8 -8 18 -8 16 0 50 87 97 246 0 1 10 5 22 8 20 6 21 5 14 -21 -5 -16 -3 -97 3 -181 10 -139 13 -153 33 -167 51 -36 50 -91 -4 -161 -29 -38 -29 -39 2 -76 14 -16 25 -36 25 -44 0 -8 -15 -47 -34 -87 -20 -43 -36 -95 -39 -129 l-5 -57 212 -110 c117 -61 216 -111 219 -111 4 0 4 7 0 16 -4 11 1 22 12 30 32 24 63 16 101 -25 20 -21 51 -55 69 -75 39 -43 71 -47 85 -11 8 22 12 24 37 14 15 -6 37 -18 48 -28 50 -43 115 -67 115 -42 0 5 -28 33 -62 63 -90 77 -138 142 -138 184 0 19 -7 49 -16 65 -8 17 -13 38 -10 46 12 31 60 3 141 -83 61 -65 87 -85 109 -87 16 -1 31 3 33 9 2 5 -56 68 -128 140 -72 71 -139 145 -149 164 -10 19 -27 44 -39 54 -12 11 -21 23 -21 27 0 4 -16 35 -36 69 -53 91 -29 107 56 38 60 -49 102 -78 113 -78 11 0 -18 52 -42 74 -11 10 -32 41 -46 70 -15 28 -32 56 -39 61 -13 11 -56 107 -56 124 0 21 35 11 82 -23 46 -32 205 -102 214 -94 10 10 -60 98 -93 118 -27 16 -33 24 -24 33 9 9 19 7 44 -5 17 -9 43 -20 57 -24 14 -4 48 -26 75 -49 68 -57 194 -133 233 -141 58 -12 38 15 -81 106 -25 19 -55 52 -67 72 -11 20 -28 39 -38 42 -21 7 -52 60 -52 88 0 12 -11 33 -25 47 -28 30 -162 188 -187 221 -16 21 -15 50 2 50 4 0 27 -18 50 -39 39 -36 133 -91 154 -91 4 0 45 -22 90 -48 101 -60 140 -77 240 -102 82 -21 146 -26 146 -12 0 17 -46 50 -110 80 -70 33 -108 74 -144 159 -20 45 -16 63 15 63 10 0 19 2 19 4 0 3 -30 36 -66 75 -85 91 -153 178 -160 206 -3 12 -4 37 -2 56 2 26 10 37 33 48 27 13 33 12 70 -8 129 -73 156 -84 181 -72 38 17 64 13 103 -14 36 -24 36 -24 176 -14 77 5 162 12 188 15 35 4 60 1 86 -10 49 -22 206 -19 206 4 0 11 -18 17 -73 22 -104 9 -116 13 -133 50 -9 22 -25 36 -47 44 -17 5 -37 15 -44 22 -7 7 -20 12 -31 12 -23 0 -57 18 -57 30 0 16 77 11 94 -6 10 -10 40 -16 88 -19 40 -2 89 -9 108 -15 19 -6 72 -15 116 -20 80 -10 84 -9 150 21 98 44 99 44 102 68 4 25 -20 27 -112 10 -94 -17 -232 27 -328 104 -49 39 -49 66 0 100 79 56 220 115 293 124 27 3 52 10 55 15 3 4 -8 25 -25 45 -17 21 -31 43 -31 50 0 23 -44 35 -134 37 -50 1 -101 7 -113 14 -12 7 -28 12 -35 11 -7 0 -4 -4 7 -9 19 -8 19 -9 -2 -9 -13 -1 -23 3 -23 8 0 14 -32 18 -57 8 -17 -8 -27 -6 -41 6 -10 10 -28 17 -39 17 -14 0 -26 11 -36 33 -23 47 -65 83 -122 104 -37 14 -51 25 -55 43 -8 32 -38 38 -56 11 -20 -28 -38 -26 -52 4 -12 25 -19 29 -58 26 -11 -1 -32 8 -47 20 -22 17 -25 24 -16 35 6 8 26 14 43 14 17 0 42 9 55 19 22 16 23 23 17 67 -7 57 -14 65 -64 79 -30 9 -37 15 -37 35 0 23 4 25 52 28 50 3 81 21 69 41 -4 5 -28 14 -55 20 -27 6 -75 26 -107 44 -33 19 -79 38 -104 42 -51 9 -103 55 -98 88 5 32 106 78 176 80 56 2 57 2 62 -29 9 -55 154 -164 247 -184 67 -16 86 -28 79 -53 -6 -27 -2 -34 53 -77 40 -31 50 -34 102 -32 52 2 61 -1 94 -29 20 -18 40 -40 46 -51 9 -16 5 -21 -25 -33 -60 -25 -44 -70 37 -104 50 -22 56 -34 31 -69 -14 -20 -13 -24 10 -55 14 -18 29 -44 34 -57 8 -21 21 -27 92 -41 l82 -17 48 48 c100 103 255 367 331 565 11 28 33 77 49 110 31 64 55 134 88 255 54 196 65 310 42 439 -6 30 -10 73 -10 95 0 98 -126 442 -170 466 -11 6 -39 36 -62 68 -24 31 -45 59 -48 62 -3 3 -15 17 -25 31 -27 34 -198 184 -244 213 -43 27 -307 162 -401 204 -73 33 -159 59 -300 92 -52 12 -131 30 -175 40 -169 41 -408 69 -599 69 -123 1 -170 -5 -423 -49 -157 -28 -370 -73 -472 -100 -102 -28 -192 -50 -198 -50 -7 0 -13 9 -13 20 0 13 9 22 28 26 15 4 88 25 162 46 74 22 157 46 185 54 27 8 63 14 80 14 16 0 70 9 119 20 50 11 101 20 113 20 13 0 42 9 64 21 31 15 51 19 79 14 53 -9 63 11 57 123 -5 99 -38 333 -62 437 -8 39 -17 99 -20 135 -2 36 -11 99 -19 140 -8 41 -13 89 -10 107 4 18 -3 62 -15 105 -126 449 -116 422 -204 552 -79 114 -88 124 -212 217 l-130 97 -380 141 -380 142 -473 84 c-260 47 -490 84 -510 83 -20 -1 -113 -4 -207 -8z"
       id="path1"
       style="fill:#ffffff;fill-opacity:0.23703703" />
    <path
       d="M6450 5866 c0 -2 7 -7 16 -10 8 -3 12 -2 9 4 -6 10 -25 14 -25 6z"
       id="path2"
       style="fill:#ffffff;fill-opacity:0.23703703" />
    <path
       d="M6659 5810 c25 -21 41 -26 41 -12 0 9 -44 32 -58 32 -4 -1 4 -10 17 -20z"
       id="path3"
       style="fill:#ffffff;fill-opacity:0.23703703" />
    <path
       d="M3640 5709 c0 -6 5 -20 11 -31 8 -16 13 -18 19 -8 5 7 6 19 3 26 -6 16 -33 27 -33 13z"
       id="path4"
       style="fill:#ffffff;fill-opacity:0.23703703" />
    <path
       d="M4030 5700 c0 -23 15 -27 23 -6 3 8 -1 17 -9 20 -9 4 -14 -1 -14 -14z"
       id="path5"
       style="fill:#ffffff;fill-opacity:0.23703703" />
    <path
       d="M3770 5526 c0 -18 60 -76 78 -76 13 0 15 13 6 46 -9 35 -84 61 -84 30z"
       id="path6"
       style="fill:#ffffff;fill-opacity:0.23703703" />
    <path
       d="M5423 5255 c-53 -35 -62 -48 -43 -60 15 -9 120 58 117 74 -4 24 -20 21 -74 -14z"
       id="path7"
       style="fill:#ffffff;fill-opacity:0.23703703" />
    <path
       d="M5487 5094 c-15 -20 -16 -28 -6 -40 11 -13 15 -11 35 13 16 20 19 32 12 41 -14 17 -20 15 -41 -14z"
       id="path8"
       style="fill:#ffffff;fill-opacity:0.23703703" />
    <path
       d="M3693 5063 c-14 -5 -16 -57 -5 -84 5 -12 13 -14 30 -8 17 6 22 16 22 43 0 36 -22 58 -47 49z"
       id="path9"
       style="fill:#ffffff;fill-opacity:0.23703703" />
    <path
       d="M3510 4959 c0 -53 -4 -67 -38 -117 -55 -82 -55 -80 -33 -92 18 -9 25 -2 65 60 43 67 46 75 46 140 0 63 -2 70 -20 70 -18 0 -20 -7 -20 -61z"
       id="path10"
       style="fill:#ffffff;fill-opacity:0.23703703" />
    <path
       d="M4143 4953 c-10 -3 -10 -10 -2 -25 10 -19 11 -19 30 -2 10 9 19 21 19 26 0 9 -27 10 -47 1z"
       id="path11"
       style="fill:#ffffff;fill-opacity:0.23703703" />
    <path
       d="M3663 4935 c-13 -9 -23 -26 -23 -37 0 -11 -10 -41 -22 -65 -20 -40 -21 -48 -9 -90 10 -41 10 -51 -5 -79 -16 -29 -16 -37 -4 -73 12 -36 11 -43 -3 -59 -24 -27 -21 -40 8 -34 14 2 25 11 25 20 0 8 19 31 41 50 l41 36 -6 57 c-5 49 -2 61 16 84 29 38 33 150 4 150 -10 0 -23 12 -30 28 -10 26 -12 27 -33 12z"
       id="path12"
       style="fill:#ffffff;fill-opacity:0.23703703" />
    <path
       d="M2675 4655 c-24 -32 -26 -39 -13 -51 13 -13 18 -11 43 21 24 32 26 39 13 51 -13 13 -18 11 -43 -21z"
       id="path13"
       style="fill:#ffffff;fill-opacity:0.23703703" />
    <path
       d="M6795 4635 c-22 -8 -40 -15 -41 -15 -1 0 -29 -32 -64 -71 -47 -53 -60 -73 -51 -82 8 -8 29 7 84 61 53 52 80 72 98 72 55 0 89 12 89 31 0 15 -7 19 -37 19 -21 -1 -56 -7 -78 -15z"
       id="path14"
       style="fill:#ffffff;fill-opacity:0.23703703" />
    <path
       d="M8317 4604 c-8 -8 1 -24 14 -24 5 0 9 7 9 15 0 15 -12 20 -23 9z"
       id="path15"
       style="fill:#ffffff;fill-opacity:0.23703703" />
    <path
       d="M4747 4533 c-11 -10 -8 -41 3 -48 15 -9 40 14 40 36 0 19 -29 27 -43 12z"
       id="path16"
       style="fill:#ffffff;fill-opacity:0.23703703" />
    <path
       d="M6747 4503 c-10 -9 13 -33 30 -33 10 0 13 6 9 16 -3 9 -6 18 -6 20 0 7 -26 5 -33 -3z"
       id="path17"
       style="fill:#ffffff;fill-opacity:0.23703703" />
    <path
       d="M6649 4313 c-6 -21 -13 -92 -16 -158 l-5 -120 -39 -41 c-22 -22 -36 -43 -33 -47 4 -4 2 -7 -5 -7 -7 0 -9 -9 -7 -22 3 -13 10 -49 16 -80 9 -48 15 -58 32 -58 16 0 19 4 14 25 -3 13 -8 53 -11 87 -2 35 -2 53 1 41 8 -33 23 -29 66 18 36 38 50 79 28 79 -5 0 -10 -5 -10 -12 0 -6 -3 -8 -6 -5 -12 11 -3 190 12 255 18 80 18 82 -6 82 -13 0 -22 -11 -31 -37z"
       id="path18"
       style="fill:#ffffff;fill-opacity:0.23703703" />
    <path
       d="M3323 4223 c-15 -79 -18 -110 -9 -115 8 -6 8 -8 -1 -8 -8 0 -1 -31 18 -89 25 -75 33 -88 49 -84 17 5 16 10 -11 91 l-29 87 20 99 c24 121 25 126 2 126 -15 0 -22 -19 -39 -107z"
       id="path19"
       style="fill:#ffffff;fill-opacity:0.23703703" />
    <path
       d="M3587 4308 c-15 -8 -17 -17 -13 -43 9 -48 -1 -64 -45 -71 -30 -5 -41 -12 -45 -30 -11 -42 10 -53 89 -50 188 9 237 26 237 82 0 14 5 34 10 44 9 16 6 21 -14 26 -17 4 -31 1 -41 -10 -9 -9 -20 -16 -24 -16 -12 0 -32 26 -25 32 3 3 -12 9 -32 13 -20 3 -46 13 -58 20 -15 10 -26 11 -39 3z"
       id="path20"
       style="fill:#ffffff;fill-opacity:0.23703703" />
    <path
       d="M3447 4279 c-13 -8 -15 -14 -7 -30 14 -25 87 -27 97 -3 13 33 -50 56 -90 33z"
       id="path21"
       style="fill:#ffffff;fill-opacity:0.23703703" />
    <path
       d="M6845 4234 c-31 -41 -14 -124 25 -124 16 0 49 78 43 101 -13 54 -38 63 -68 23z"
       id="path22"
       style="fill:#ffffff;fill-opacity:0.23703703" />
    <path
       d="M4281 4136 c-10 -12 -2 -22 44 -57 30 -23 57 -51 60 -63 25 -112 25 -108 -5 -161 -37 -65 -42 -69 -174 -149 l-109 -66 -100 0 c-77 0 -104 -4 -118 -16 -15 -14 -22 -14 -74 2 -55 15 -69 15 -164 -2 -27 -5 -33 -4 -29 8 15 38 -211 171 -233 137 -5 -8 -8 -23 -7 -34 2 -16 11 -20 43 -21 40 -1 109 -39 147 -81 17 -18 16 -20 -35 -36 -28 -9 -68 -19 -88 -22 -22 -3 -54 -21 -80 -43 -24 -21 -60 -49 -79 -64 -19 -14 -46 -36 -60 -48 -23 -20 -32 -22 -103 -16 l-77 6 -10 -27 c-18 -49 -83 -173 -97 -185 -7 -6 -13 -31 -13 -58 0 -32 -5 -52 -17 -62 -22 -19 -80 -49 -90 -47 -5 1 -9 -22 -10 -51 -2 -29 -5 -55 -8 -58 -3 -3 -5 70 -5 161 0 160 -1 167 -20 167 -19 0 -20 -7 -20 -170 0 -163 1 -170 20 -170 15 0 20 -7 20 -26 0 -14 5 -34 10 -44 6 -11 17 -50 25 -87 54 -257 103 -386 176 -471 16 -18 29 -38 29 -46 0 -7 14 -39 31 -72 17 -32 51 -97 75 -144 25 -47 57 -101 73 -120 36 -46 98 -167 105 -207 8 -48 77 -153 101 -155 11 0 27 -2 35 -2 10 -1 15 -11 15 -30 -1 -25 15 -39 180 -148 99 -66 191 -132 205 -147 l25 -26 3 23 c3 19 9 22 47 22 24 0 50 3 58 6 8 3 30 -8 48 -24 31 -27 144 -67 177 -62 15 2 55 1 197 -2 214 -6 468 72 649 200 33 23 64 42 69 42 6 0 34 11 64 25 39 19 58 35 70 59 8 19 32 43 52 54 37 21 91 72 77 72 -18 0 26 39 162 141 132 99 430 359 531 462 39 41 47 67 20 67 -5 0 -38 -28 -72 -61 -168 -166 -419 -380 -451 -385 -8 -1 -73 -42 -143 -92 -220 -154 -352 -230 -439 -253 -43 -11 -90 -18 -104 -16 -13 3 -34 0 -45 -5 -35 -19 -88 -27 -108 -17 -25 14 -54 6 -103 -27 -21 -15 -59 -33 -83 -41 -25 -7 -53 -21 -63 -30 -10 -9 -21 -13 -25 -9 -13 13 13 61 40 74 38 19 37 57 -3 71 -41 14 -38 36 10 80 22 20 40 42 40 50 0 22 -54 91 -69 88 -13 -2 -42 -41 -57 -77 -3 -8 -12 -29 -20 -47 -18 -41 -19 -40 16 -70 33 -27 38 -48 14 -57 -27 -10 -38 -7 -71 25 -27 24 -33 38 -33 72 0 57 -18 88 -59 102 -19 6 -36 16 -38 21 -2 6 10 28 27 49 16 21 30 44 30 51 0 19 13 17 44 -7 47 -37 78 -29 136 34 55 60 94 74 120 42 16 -19 34 -19 50 0 7 8 27 15 45 15 17 0 34 3 38 6 8 9 -4 35 -14 29 -4 -3 -6 5 -4 17 3 13 9 24 15 26 5 2 10 10 10 18 0 19 -41 34 -91 34 -46 0 -48 7 -8 38 20 16 47 25 82 28 28 2 70 6 92 8 22 2 48 4 58 5 25 1 67 46 67 72 0 12 -13 37 -30 55 -16 19 -34 52 -40 73 -6 25 -18 42 -30 46 -23 7 -60 -2 -60 -15 0 -5 -16 -12 -35 -16 -26 -4 -43 -1 -68 15 -44 27 -83 27 -97 1 -9 -16 -21 -20 -66 -20 -40 0 -63 -6 -80 -19 -22 -17 -36 -19 -142 -14 -64 3 -123 10 -129 16 -7 5 -13 20 -13 32 0 13 -7 25 -15 29 -17 6 -55 87 -55 115 0 9 -6 26 -14 36 -14 19 -15 19 -35 1 -19 -17 -27 -18 -74 -8 -28 6 -71 16 -93 23 -38 11 -44 11 -69 -9 -23 -18 -39 -21 -94 -20 -55 2 -71 -2 -97 -21 -26 -19 -35 -21 -52 -12 -11 6 -37 11 -56 11 -39 0 -65 20 -90 69 -9 16 -26 38 -39 48 -26 20 -77 115 -77 143 0 25 5 27 77 39 33 5 75 19 94 30 44 27 70 26 161 -3 105 -35 285 -34 383 2 17 6 58 21 93 33 34 12 65 26 68 30 3 5 22 9 42 9 34 1 72 18 72 34 0 11 -124 6 -210 -10 -55 -9 -137 -15 -230 -14 -80 1 -173 -2 -208 -5 -43 -5 -67 -4 -75 4 -6 6 -27 11 -46 12 -20 0 -45 4 -56 8 -11 5 -25 4 -32 -1 -9 -7 -22 -7 -40 0 -16 6 -40 13 -55 16 -25 6 -27 8 -16 26 14 22 49 36 118 46 30 5 53 16 70 34 37 39 61 49 108 43 26 -4 55 0 82 11 22 9 53 16 68 16 32 0 149 45 173 66 20 18 53 18 90 -1 37 -20 59 -9 74 36 18 51 37 57 82 26 61 -42 102 -35 111 18 1 11 8 26 16 33 10 10 17 9 38 -8 38 -29 57 -25 74 15 16 38 14 38 124 36 66 -2 77 -5 95 -27 23 -27 36 -30 65 -12 16 10 24 10 40 0 26 -16 105 -16 118 1 11 13 6 28 -31 80 -18 25 -18 26 14 71 41 57 70 61 93 12 9 -19 16 -47 16 -63 0 -21 9 -36 30 -51 18 -14 33 -37 40 -63 7 -23 21 -54 32 -70 22 -30 24 -60 13 -201 -9 -102 -11 -104 -92 -58 -32 18 -62 29 -73 25 -11 -3 -30 4 -50 22 -27 23 -44 28 -99 30 -54 2 -73 -2 -107 -22 -22 -13 -47 -31 -54 -41 -13 -14 -11 -19 8 -35 21 -16 26 -17 63 -4 54 19 134 22 154 5 9 -8 24 -30 33 -49 9 -20 27 -40 38 -46 12 -6 34 -25 49 -43 15 -18 35 -32 44 -32 12 0 28 -22 50 -68 38 -84 43 -158 11 -185 -27 -23 -26 -88 2 -154 19 -43 28 -53 47 -53 27 0 81 53 81 81 0 9 6 19 13 22 8 3 21 21 30 40 15 30 15 40 4 73 -7 22 -14 75 -16 119 -1 44 -7 97 -12 119 -6 21 -7 50 -3 65 3 14 8 64 10 111 2 65 -1 97 -16 135 -28 75 -60 183 -60 203 0 10 -11 33 -25 52 -14 19 -25 41 -25 50 0 8 -23 46 -50 84 -28 38 -48 76 -46 85 3 10 -36 63 -104 141 -65 75 -136 170 -177 238 -42 70 -72 111 -80 108 -10 -4 -13 8 -13 44 0 46 -2 50 -24 50 -14 0 -28 5 -31 10 -16 25 -26 7 -21 -35 8 -57 15 -75 38 -100 10 -11 34 -38 53 -59 33 -37 95 -150 95 -174 0 -6 6 -15 13 -19 26 -17 88 -115 85 -136 -3 -20 -9 -22 -59 -22 -51 0 -60 4 -98 38 -43 39 -56 44 -66 27 -9 -15 -25 -12 -25 5 0 23 -59 34 -99 19 -31 -13 -38 -12 -88 12 l-55 25 47 30 c27 17 52 42 60 62 7 17 25 47 39 66 31 42 34 93 7 118 -10 10 -22 38 -26 63 -11 67 -29 87 -131 152 -7 4 -17 1 -23 -6z"
       id="path23"
       style="fill:#ffffff;fill-opacity:0.23703703" />
    <path
       d="M6716 4065 c-9 -26 -7 -32 5 -12 6 10 9 21 6 23 -2 3 -7 -2 -11 -11z"
       id="path24"
       style="fill:#ffffff;fill-opacity:0.23703703" />
    <path
       d="M3205 3941 c-14 -101 -6 -130 53 -198 44 -49 67 -67 118 -87 74 -30 90 -32 98 -11 4 11 -9 22 -48 39 -30 13 -63 27 -75 31 -11 3 -41 29 -67 58 l-46 51 4 80 c2 69 1 81 -13 84 -13 2 -18 -8 -24 -47z"
       id="path25"
       style="fill:#ffffff;fill-opacity:0.23703703" />
    <path
       d="M3947 3794 c-15 -25 -25 -50 -22 -55 10 -16 32 -10 47 13 13 19 22 21 94 20 85 -3 123 11 111 41 -8 21 -89 33 -133 19 -20 -6 -36 -6 -40 -1 -11 19 -30 7 -57 -37z"
       id="path26"
       style="fill:#ffffff;fill-opacity:0.23703703" />
    <path
       d="M7860 3370 c0 -6 7 -10 15 -10 8 0 15 2 15 4 0 2 -7 6 -15 10 -8 3 -15 1 -15 -4z"
       id="path27"
       style="fill:#ffffff;fill-opacity:0.23703703" />
    <path
       d="M4300 2870 c-22 -5 -23 -7 -7 -13 26 -10 57 -9 57 2 0 13 -22 18 -50 11z"
       id="path28"
       style="fill:#ffffff;fill-opacity:0.23703703" />
    <path
       d="M4904 2335 c-4 -9 4 -25 20 -40 14 -13 26 -33 26 -45 0 -15 6 -20 25 -20 28 0 33 21 10 40 -8 7 -15 21 -15 30 0 34 -12 50 -36 50 -14 0 -27 -7 -30 -15z"
       id="path29"
       style="fill:#ffffff;fill-opacity:0.23703703" />
    <path
       d="M6630 2197 c0 -192 -121 -414 -291 -535 -63 -45 -257 -113 -318 -111 -26 1 -56 -3 -68 -9 -12 -7 -39 -12 -60 -12 -21 0 -65 -7 -97 -15 -56 -15 -98 -12 -123 7 -7 5 -17 7 -23 3 -18 -11 -70 15 -70 35 0 17 3 17 45 4 43 -12 45 -12 45 7 0 24 -43 69 -65 69 -9 0 -19 -8 -22 -17 -8 -20 -68 -80 -95 -94 -9 -5 -19 -22 -23 -38 -9 -42 -29 -55 -90 -55 -52 -1 -57 -4 -107 -53 -30 -29 -58 -53 -63 -53 -5 0 -19 -9 -31 -21 -15 -14 -45 -24 -94 -30 -60 -9 -102 -26 -261 -105 -158 -79 -189 -98 -184 -113 3 -10 -3 -28 -14 -42 -21 -27 -30 -62 -33 -132 -1 -27 -4 -50 -7 -52 -14 -8 -127 -15 -137 -8 -5 5 -20 24 -32 45 -22 36 -63 58 -107 58 -12 0 -32 11 -45 25 -13 14 -30 25 -38 25 -14 0 -81 37 -92 50 -9 12 -99 32 -115 26 -18 -7 -65 35 -65 58 0 21 -42 49 -51 34 -5 -7 -60 17 -164 71 -86 44 -165 81 -175 81 -9 0 -23 7 -31 16 -7 9 -52 36 -101 60 -64 32 -86 48 -82 59 4 8 13 15 21 15 13 0 13 3 3 15 -15 18 -21 19 -44 2 -22 -16 -47 -128 -40 -182 3 -22 1 -92 -4 -155 -7 -86 -6 -122 3 -145 7 -16 16 -38 19 -48 3 -10 18 -25 34 -34 16 -9 37 -29 48 -44 34 -47 155 -169 183 -183 42 -22 191 -156 191 -172 0 -26 -30 -15 -78 29 -26 24 -92 69 -147 101 -82 47 -107 67 -138 111 -40 57 -76 77 -102 55 -25 -20 -18 -47 15 -59 33 -11 40 -37 12 -45 -23 -8 -147 -131 -173 -173 -25 -40 -60 -202 -52 -247 4 -24 2 -36 -6 -36 -6 0 -11 16 -11 35 0 20 -7 49 -15 64 -12 24 -13 46 -4 132 6 57 12 142 13 189 2 47 9 130 15 185 6 55 16 145 21 200 13 133 56 358 81 417 38 93 19 100 -85 31 -149 -99 -222 -148 -262 -178 -23 -16 -82 -59 -130 -95 -111 -80 -304 -270 -304 -298 0 -11 -7 -25 -16 -33 -8 -7 -24 -30 -35 -51 -11 -22 -27 -42 -35 -45 -8 -3 -27 -26 -41 -52 -15 -25 -38 -54 -50 -64 -13 -10 -29 -24 -36 -31 -15 -16 -108 -96 -133 -116 -11 -8 -61 -50 -113 -93 -72 -61 -122 -92 -222 -140 -173 -83 -173 -92 3 -101 136 -7 268 7 315 32 50 27 95 4 77 -41 -14 -37 -282 -107 -409 -107 -110 0 -198 -14 -257 -40 -41 -18 -50 -18 -125 -6 -68 11 -92 11 -145 -1 -34 -8 -94 -17 -133 -22 -38 -4 1776 -9 4033 -10 l4102 -1 -15 37 c-15 36 -27 54 -52 81 -7 7 -13 21 -13 31 0 10 -9 28 -20 40 -10 13 -29 53 -41 89 -12 37 -33 76 -48 90 -76 69 -90 89 -146 212 -41 92 -66 135 -81 140 -12 5 -60 37 -107 73 -106 80 -199 137 -223 137 -24 0 -136 35 -179 56 -19 9 -36 25 -39 40 -8 30 -47 57 -78 52 -14 -2 -29 -15 -38 -34 -11 -24 -21 -32 -40 -30 -23 1 -26 -3 -34 -61 -5 -35 -14 -63 -19 -63 -5 0 -26 19 -48 42 -40 43 -44 55 -54 171 -5 64 -12 86 -56 183 -11 23 -19 47 -19 55 0 27 -41 81 -123 164 -45 45 -161 164 -257 264 -143 149 -182 184 -215 193 -22 6 -65 33 -96 59 -41 35 -108 71 -270 144 -118 54 -222 101 -231 106 -17 9 -18 3 -18 -74z"
       id="path30"
       style="fill:#ffffff;fill-opacity:0.23703703" />
    <path
       d="M4582 1120 c-42 -10 -53 -20 -21 -20 13 1 35 7 49 15 28 16 22 17 -28 5z"
       id="path31"
       style="fill:#ffffff;fill-opacity:0.23703703" />
    <path
       d="M3207 852 c-16 -17 -23 -42 -13 -42 24 0 56 23 56 40 0 25 -22 26 -43 2z"
       id="path32"
       style="fill:#ffffff;fill-opacity:0.23703703" />
    <path
       d="M1830 839 c-47 -5 -128 -13 -180 -19 -52 -6 -122 -10 -156 -10 -61 0 -351 -53 -383 -69 -27 -15 -170 -49 -236 -57 -33 -3 -71 -11 -85 -16 -26 -11 -300 -31 -405 -30 -33 0 -122 3 -197 7 -119 7 -141 5 -163 -9 -22 -15 -24 -21 -19 -59 4 -23 13 -52 20 -64 18 -29 18 -43 -3 -58 -16 -12 -16 -18 -4 -66 8 -30 19 -65 27 -79 7 -14 21 -43 30 -65 11 -25 58 -79 123 -142 104 -101 107 -103 153 -103 46 0 47 1 30 18 -10 10 -25 28 -33 40 -9 12 -33 27 -55 34 -30 10 -40 19 -42 39 -2 14 4 31 12 39 24 19 19 29 -16 38 -45 11 -49 38 -6 47 44 10 124 79 144 125 18 39 83 80 154 95 19 4 73 18 119 31 60 17 108 24 175 24 50 0 127 5 171 11 91 12 135 3 135 -30 0 -23 -14 -35 -70 -57 -25 -10 -63 -32 -86 -49 -22 -17 -68 -41 -103 -54 -46 -17 -79 -38 -121 -79 -59 -57 -106 -85 -232 -139 -37 -15 -68 -33 -68 -40 0 -6 26 -19 57 -28 45 -13 79 -15 158 -10 121 8 270 33 307 51 14 8 53 16 85 20 114 12 268 45 303 65 151 89 660 582 660 639 0 18 -6 20 -57 19 -32 -1 -96 -6 -143 -10z"
       id="path33"
       style="fill:#ffffff;fill-opacity:0.23703703" />
  </g>
</svg>
